<?xml version="1.0" encoding="utf-8"?>
<!-- Generator: Adobe Illustrator 27.9.0, SVG Export Plug-In . SVG Version: 6.00 Build 0)  -->
<svg version="1.1" id="Layer_1" xmlns="http://www.w3.org/2000/svg" xmlns:xlink="http://www.w3.org/1999/xlink" x="0px" y="0px"
	 viewBox="0 0 146 45" style="enable-background:new 0 0 146 45;" xml:space="preserve">
<style type="text/css">
	.st0{fill:#123274;}
</style>
<g>
	<path class="st0" d="M34.8,0C27.3,0,19.2,4.5,14,8.9l0.4,0.6c8-5.6,19-9.2,22.1-3.8c1.6,2.9-1.1,8.7-5,13.3c0.9-2,0.3-5.9-5.1-5.9
		C17.6,13,0,24.9,0,37c0,4.9,3.4,8,8.9,8c14.8,0,34.9-24.3,34.9-36.5C43.8,4.1,41.3,0,34.8,0z M14,31.9c-2.6,0-3.8-2-3.2-4.3
		c1.3-4.7,9.9-11.7,15.7-11.7c4.2,0,3.9,3.8,1.4,7l-1.4,1.5C21.6,29.3,17,31.9,14,31.9L14,31.9z"/>
	<path class="st0" d="M66.7,11.4C65.3,9.8,63.1,9,61.5,9h-8.7l-1.5,5.5h8.2l0.8,0.1c0,0,0.8,0.1,1.2,0.7c0.3,0.5,0.4,1.2,0.1,2.1
		l-0.4,1.4h-5.1c-4.4,0-10.6,3.2-12,8.3c-0.7,2.6-0.1,4.8,1.2,6.4c1.3,1.6,3.8,2.5,6.5,2.5h4.8v0h6.1l2.8-10.6l2.1-7.8
		C68.4,14.5,67.5,12.5,66.7,11.4L66.7,11.4z M52.9,30.5c-0.9,0-1.6-0.3-2-0.9c-0.5-0.6-0.6-1.4-0.4-2.2c0.5-1.8,2.5-3.3,4.5-3.3h4.8
		l-1.7,6.4H52.9L52.9,30.5z"/>
	<path class="st0" d="M81.5,9c-2.3,0-4.5,0.7-6.3,2c-1.8,1.3-2.8,2.9-3.4,5.1c-1.3,4.8,2.5,7.1,5.5,8.7c2.2,1.2,4,2.2,3.6,3.7
		c-0.3,1.1-0.7,2-3.4,2h-8.1L67.9,36h9c2.4,0,4.6-0.5,6.4-1.9c1.8-1.4,2.8-3.3,3.4-5.6c0.6-2.2,0.2-4.4-1.2-6
		c-1.2-1.3-2.9-2.3-4.4-3.1c-1.9-1-3.8-2-3.4-3.2c0.2-0.7,0.9-1.7,2.5-1.7H88L89.4,9L81.5,9L81.5,9z"/>
	<path class="st0" d="M96.5,9l-7,27h5.9l7-27H96.5z"/>
	<path class="st0" d="M120.6,9c-10.5,0-15.9,7-17.7,13.5c-2.1,7.7,2,13.5,9.5,13.5h5l1.5-5.5h-5c-2.8,0-6.7-2.2-5.1-8
		c1.2-4.6,5.7-8,10.7-8h3.2l1.5-5.5L120.6,9L120.6,9z"/>
	<path class="st0" d="M136.4,9c-2.3,0-4.5,0.7-6.3,2c-1.8,1.3-2.8,2.9-3.4,5.1c-1.3,4.8,2.5,7.1,5.5,8.7c2.2,1.2,4,2.2,3.6,3.7
		c-0.3,1.1-0.7,2-3.4,2h-8.1l-1.5,5.5h9c2.4,0,4.6-0.5,6.4-1.9c1.8-1.4,2.8-3.3,3.4-5.6c0.6-2.2,0.2-4.4-1.2-6
		c-1.2-1.3-2.9-2.3-4.4-3.1c-1.9-1-3.8-2-3.5-3.2c0.2-0.7,0.9-1.7,2.5-1.7h7.9l1.5-5.5L136.4,9L136.4,9z"/>
</g>
</svg>
