<?xml version="1.0" encoding="utf-8"?>
<!-- Generator: Adobe Illustrator 27.9.0, SVG Export Plug-In . SVG Version: 6.00 Build 0)  -->
<svg version="1.1" id="Layer_1" xmlns="http://www.w3.org/2000/svg" xmlns:xlink="http://www.w3.org/1999/xlink" x="0px" y="0px"
	 viewBox="0 0 177 28" style="enable-background:new 0 0 177 28;" xml:space="preserve">
<style type="text/css">
	.st0{fill:#0070CC;}
</style>
<path class="st0" d="M10.8,2.3V23l4.7,1.5V7.1c0-0.8,0.4-1.4,0.9-1.2c0.8,0.2,0.9,1,0.9,1.8v6.9c2.9,1.4,5.2,0,5.2-3.7
	S21.2,5.4,17.2,4C15.7,3.5,12.8,2.7,10.8,2.3"/>
<path class="st0" d="M16.3,21.5l7.5-2.7c0.9-0.3,1-0.7,0.3-1c-0.7-0.2-2-0.2-2.8,0.1l-5,1.8v-2.8l0.3-0.1c0,0,1.4-0.5,3.5-0.7
	c2-0.2,4.5,0,6.5,0.8c2.2,0.7,2.5,1.7,1.9,2.4c-0.6,0.7-1.9,1.2-1.9,1.2l-10.2,3.7L16.3,21.5L16.3,21.5z"/>
<path class="st0" d="M2.2,21.2c-2.3-0.6-2.6-2-1.6-2.7s2.6-1.2,2.6-1.2l6.7-2.4v2.7L5,19.2c-0.9,0.3-1,0.7-0.3,1
	c0.7,0.2,2,0.2,2.8-0.1l2.3-0.8v2.4c-0.1,0-0.3,0.1-0.5,0.1C7.1,22.1,4.6,22,2.2,21.2z"/>
<g>
	<path class="st0" d="M12.7,33.7v20.7l4.7,1.5V38.6c0-0.8,0.4-1.4,0.9-1.2c0.8,0.2,0.9,1,0.9,1.8v6.9c2.9,1.4,5.2,0,5.2-3.7
		s-1.3-5.5-5.3-6.9C17.6,35,14.7,34.1,12.7,33.7"/>
	<path class="st0" d="M18.3,52.9l7.5-2.7c0.9-0.3,1-0.7,0.3-1c-0.7-0.2-2-0.2-2.8,0.1l-5,1.8v-2.8l0.3-0.1c0,0,1.4-0.5,3.5-0.7
		c2-0.2,4.5,0,6.5,0.8c2.2,0.7,2.5,1.7,1.9,2.4s-1.9,1.2-1.9,1.2l-10.2,3.7L18.3,52.9L18.3,52.9z"/>
	<path class="st0" d="M4.1,52.6c-2.3-0.6-2.6-2-1.6-2.7s2.6-1.2,2.6-1.2l6.7-2.4V49L7,50.7c-0.9,0.3-1,0.7-0.3,1
		c0.7,0.2,2,0.2,2.8-0.1l2.3-0.8v2.4c-0.1,0-0.3,0.1-0.5,0.1C9,53.6,6.5,53.4,4.1,52.6z"/>
</g>
<path class="st0" d="M27.4,25.4c0.4,0,0.7-0.1,1-0.4s0.4-0.6,0.4-1s-0.1-0.7-0.4-1s-0.6-0.4-1-0.4c-0.8,0-1.4,0.6-1.4,1.4
	c0,0.4,0.1,0.7,0.4,1C26.7,25.3,27.1,25.4,27.4,25.4z M26.3,24c0-0.3,0.1-0.6,0.3-0.8s0.5-0.3,0.8-0.3s0.6,0.1,0.8,0.3
	c0.2,0.2,0.3,0.5,0.3,0.8c0,0.6-0.5,1.1-1.1,1.1c-0.3,0-0.6-0.1-0.8-0.3C26.4,24.6,26.3,24.3,26.3,24z"/>
<path class="st0" d="M28.1,24.7L28.1,24.7L28,24.5v-0.2c0-0.1,0-0.2-0.1-0.2V24l0.1-0.1c0-0.1,0.1-0.1,0.1-0.2
	c0-0.2-0.1-0.3-0.2-0.4c-0.1,0-0.2-0.1-0.3-0.1h-0.7v1.5h0.3v-0.6h0.4h0.2l0.1,0.2v0.2v0.1v0.1l0,0H28.1L28.1,24.7L28.1,24.7
	L28.1,24.7z M27.8,23.7l-0.1,0.2L27.5,24h-0.4v-0.4h0.4h0.1C27.8,23.5,27.8,23.6,27.8,23.7z"/>
<path class="st0" d="M175.1,20.2c0.4,0,0.8-0.2,1.1-0.5s0.5-0.7,0.5-1.1s-0.2-0.8-0.5-1.1c-0.3-0.3-0.7-0.5-1.1-0.5
	c-0.9,0-1.6,0.7-1.6,1.6c0,0.4,0.2,0.8,0.5,1.1C174.3,20.1,174.7,20.2,175.1,20.2z M173.8,18.6c0-0.4,0.1-0.7,0.4-0.9
	c0.2-0.3,0.6-0.4,0.9-0.4c0.4,0,0.7,0.1,0.9,0.4s0.4,0.6,0.4,0.9c0,0.7-0.6,1.3-1.3,1.3c-0.4,0-0.7-0.1-0.9-0.4
	C173.9,19.3,173.8,19,173.8,18.6"/>
<path class="st0" d="M175.9,19.4L175.9,19.4l-0.1-0.2V19c0-0.1,0-0.2-0.1-0.2l-0.1-0.1l0.1-0.1c0.1-0.1,0.1-0.2,0.1-0.3
	c0-0.2-0.1-0.4-0.3-0.4c-0.1,0-0.2-0.1-0.3-0.1h-0.8v1.8h0.3v-0.7h0.5h0.2c0.1,0,0.1,0.1,0.1,0.2v0.3v0.1v0.1l0,0h0.3L175.9,19.4
	L175.9,19.4z M175.6,18.2c0,0.1,0,0.2-0.1,0.2s-0.1,0.1-0.2,0.1h-0.5V18h0.5h0.2C175.5,18.1,175.6,18.1,175.6,18.2"/>
<path class="st0" d="M45.5,0h-8.6l-0.1,0.1v20.1l0.1,0.1h3.5l0.1-0.1v-18l0,0h4c1.4,0,2.2,1.4,2.2,4.1s-0.8,4.1-2.2,4.1H42v0.1v2.1
	l0.1,0.1h3.4c1.2,0,2.4-0.6,3.3-1.5c1-1.1,1.6-2.8,1.6-4.8C50.3,2.5,48.4,0,45.5,0"/>
<path class="st0" d="M56,0h-3.5l-0.1,0.1v20.1l0.1,0.1H56l0.1-0.1L56,0L56,0z"/>
<path class="st0" d="M71.2,4.9L71.2,4.9l-6.3-0.1c-5.6,0-6.3,4.1-6.3,7.7v3.1c0,2.7,1.7,4.6,4,4.6H66l0.1-0.1V18h-0.2h-2.4
	c-0.6,0-1.3-0.3-1.3-2.2v-3.3c0-2.2,0.2-3.7,0.7-4.5c0.5-0.9,1.3-1,2-1h2.7l0,0v13.1l0.1,0.1h3.5l0.1-0.1L71.2,4.9L71.2,4.9z"/>
<path class="st0" d="M96.2,8.4l-1.7-0.1c-1.3-0.1-2.2-0.8-2.2-2.9c0-2.5,1.1-3.1,2.6-3.1h4.7l0.1-0.1V0.1L99.6,0h-5.2
	c-3.2,0-5.5,1.9-5.5,5.7v0.2c0,3,1.8,5.2,4.6,5.4l1.7,0.1c1.3,0.1,2.1,1.3,2.1,3v0.5c0,1.1-0.3,3.1-2.6,3.1h-4.9l-0.1,0.1v2.1
	l0.1,0.1h6.1c1.9,0,5.1-0.8,5.1-5.9c0-1.8-0.4-3.3-1.3-4.4C98.8,9,97.7,8.5,96.2,8.4"/>
<path class="st0" d="M124.8,4.9L124.8,4.9l-6.3-0.1c-5.6,0-6.3,4.1-6.3,7.7v3.1c0,2.7,1.7,4.6,3.9,4.6h3.4l0.1-0.1V18l-0.1-0.1h-2.4
	c-0.6,0-1.3-0.3-1.3-2.2v-3.3c0-2.2,0.2-3.7,0.7-4.5c0.5-0.9,1.3-1,2-1h2.7l0,0V20l0.1,0.1h3.5l0.1-0.1L124.8,4.9L124.8,4.9z"/>
<path class="st0" d="M110.8,4.8H107l0,0V2.3l-0.1-0.1h-3.5l-0.1,0.1v13.3c0,2.7,1.7,4.6,3.9,4.6h2.5l0.1-0.1V18l-0.1-0.1h-1.5
	c-0.4,0-1.3,0-1.3-2v-9l0,0c1.1,0,3.8,0,3.8,0l0.1-0.1V4.8L110.8,4.8L110.8,4.8z"/>
<path class="st0" d="M135.1,4.8h-3.8l0,0V2.3l-0.1-0.1h-3.5l-0.1,0.1v13.3c0,2.7,1.7,4.6,4,4.6h2.5l0.1-0.1V18l-0.1-0.1h-1.5
	c-0.4,0-1.3,0-1.3-2v-9l0,0c1.2,0,3.8,0,3.8,0l0.1-0.1L135.1,4.8L135.1,4.8L135.1,4.8z"/>
<path class="st0" d="M140.8,4.8h-3.5l-0.1,0.1v15.3l0.1,0.1h3.5l0.1-0.1L140.8,4.8L140.8,4.8z"/>
<path class="st0" d="M140.8,0h-3.5l-0.1,0.1V3l0.1,0.1h3.5l0.1-0.1L140.8,0L140.8,0z"/>
<path class="st0" d="M164.9,4.8h-6.2l-0.1,0.1v15.3l0.1,0.1h3.5l0.1-0.1V7.1l0,0h2.7c0.7,0,1.5,0.1,2,0.9s0.7,2.1,0.7,4.1
	c0,0.1,0,8.1,0,8.1l0.1,0.1h3.5l0.1-0.1v-7.6C171.2,8.9,170.5,4.8,164.9,4.8z"/>
<path class="st0" d="M149.8,4.8c-5.8,0-6.6,4.1-6.6,7.7s0.8,7.7,6.6,7.7s6.6-4.1,6.6-7.7C156.3,8.9,155.6,4.8,149.8,4.8z M152,17
	c-0.6,0.9-1.4,1-2.2,1s-1.7-0.1-2.2-1c-0.5-0.8-0.7-2.2-0.7-4.5l0,0c0-2.6,0.3-4.2,1.1-4.9c0.4-0.4,1-0.6,1.9-0.6s1.4,0.2,1.9,0.6
	c0.7,0.7,1.1,2.2,1.1,4.9C152.7,14.8,152.5,16.2,152,17"/>
<path class="st0" d="M73.1,4.8L73.1,4.8L78.2,20v0.1l-2.9,7.5v0.1h3l0.1-0.1l9.1-22.7V4.8h-3.3l-0.1,0.1l-3.8,9.9l0,0l-3.4-9.9
	l-0.1-0.1C76.8,4.8,73.1,4.8,73.1,4.8z"/>
</svg>
